<svg xmlns="http://www.w3.org/2000/svg" viewBox="0 0 130 120">
	<path fill="#6c757d" d="M 39.919 72.129 L 23.175 72.129 C 25.392 79.734 29.506 86.551 35.529 92.574 C 45.131 102.178 56.677 106.972 70.179 106.972 C 72.878 106.972 75.493 106.771 78.033 106.388 C 88.203 104.853 97.107 100.255 104.736 92.574 C 110.798 86.553 114.941 79.734 117.175 72.129 L 110.38 72.129 L 100.444 72.129 L 39.919 72.129 Z" />
	<path fill="#6c757d" d="M 117.176 43.91 C 114.944 36.284 110.8 29.436 104.735 23.37 C 97.126 15.762 88.247 11.196 78.11 9.66 C 75.546 9.271 72.905 9.067 70.178 9.067 C 56.676 9.067 45.129 13.836 35.528 23.37 C 29.503 29.436 25.387 36.284 23.171 43.91" />
	<path fill="#6c757d" d="M 30.686 49.386 L 21.939 49.386 C 21.619 51.308 21.401 53.27 21.302 55.282 L 31.698 55.282 L 36.913 55.282 L 112.188 55.282 L 119.059 55.282 C 118.959 53.27 118.741 51.308 118.418 49.386" />
	<path fill="#6c757d" d="M 21.302 60.757 C 21.401 62.77 21.618 64.732 21.939 66.653 L 31.033 66.653 L 37.926 66.653 L 111.574 66.653 L 118.42 66.653 C 118.742 64.732 118.962 62.77 119.062 60.757" />
	<path fill="#6c757d" d="M 18.394 58.021 C 18.394 32.197 37.789 10.74 63.02 6.966 C 62.394 6.943 61.765 6.917 61.133 6.917 C 32.819 6.917 9.864 29.798 9.864 58.021 C 9.864 86.245 32.818 109.124 61.133 109.124 C 61.767 109.124 62.396 109.101 63.024 109.077 C 37.789 105.303 18.394 83.846 18.394 58.021 Z" />
</svg>