<svg xmlns="http://www.w3.org/2000/svg" viewBox="0 0 256 230">
    <path fill="#6c757d" d="M 76.501 203.351 C 66.751 195.681 56.348 188.331 49.241 177.974 C 34.28 159.71 22.764 138.569 14.891 116.349 C 10.131 101.899 8.501 86.408 2.361 72.519 C -4.053 62.428 3.466 51.405 14.518 48.199 C 19.435 47.251 28.086 42.609 17.643 45.931 C 8.279 52.797 7.377 39.691 16.977 38.861 C 23.529 37.992 25.941 32.631 23.698 27.805 C 16.662 23.215 40.753 18.179 28.63 11.332 C 16.01 -2.288 46.29 -4.91 38.818 10.561 C 37.032 22.456 59.984 8.376 54.654 22.115 C 60.069 28.714 74.926 23.62 74.553 32.872 C 82.439 33.414 85.146 40.045 92.541 40.555 C 100.218 44.021 114.121 46.747 116.729 55.392 C 109.119 61.415 91.502 42.949 90.651 59.624 C 92.953 84.262 92.366 109.641 101.377 133.102 C 105.639 147.306 115.977 158.487 125.308 169.552 C 134.241 180.386 146.338 188.018 158.671 194.439 C 169.486 199.539 181.146 202.919 192.936 205.045 C 197.716 201.389 206.157 187.795 213.611 193.523 C 213.971 199.972 198.815 206.994 212.9 206.281 C 221.178 203.783 226.913 212.675 233.726 204.652 C 240.004 212.088 259.816 199.905 255.351 215.102 C 249.309 219 240.501 216.645 234.453 222.008 C 224.481 217.025 216.541 226.461 205.497 225.271 C 193.237 227.467 180.759 228.351 168.33 228.369 C 147.934 226.76 127.108 226.081 107.706 218.979 C 96.773 215.803 86.108 209.577 76.501 203.351 L 76.501 203.351 Z M 93.725 210.819 C 104.397 215.429 114.834 220.294 126.532 221.765 C 145.09 224.342 164.255 228.317 182.878 224.695 C 174.45 220.89 165.733 226.173 157.337 221.975 C 147.267 224.139 136.459 221.419 126.217 220.078 C 114.577 214.894 102.011 211.33 91.11 204.593 C 77.482 199.618 98.153 210.976 101.834 211.899 C 110.348 216.729 92.469 209.419 89.944 207.412 C 82.812 203.41 81.904 204.247 89.24 208.308 C 90.717 209.172 92.176 210.081 93.725 210.819 L 93.725 210.819 Z M 73.415 196.466 C 83.76 200.298 73.369 189.194 68.635 189.836 C 66.535 186.193 60.612 183.891 64.79 181.936 C 57.277 184.546 56.917 172.016 53.387 173.809 C 45.435 171.298 50.293 162.404 40.818 156.939 C 39.954 151.183 31.408 146.194 28.688 137.516 C 27.485 133.07 19.03 120.313 24.222 132.186 C 28.642 143.616 36.417 153.413 42.891 163.189 C 47.913 172.499 53.851 182.237 62.999 188.044 C 66.086 191.006 69.06 195.537 73.414 196.466 L 73.415 196.466 Z M 118.979 215.697 C 123.216 218.372 143.717 221.556 130.881 216.795 C 128.728 217.247 107.078 210.668 118.979 215.697 L 118.979 215.697 Z M 72.16 177.686 C 77.13 181.497 92.21 178.176 79.771 175.411 C 74.115 172.396 61.364 170.331 70.056 177.229 L 72.16 177.686 Z M 96.223 190.436 C 108.373 193.87 86.003 182.746 93.223 189.168 L 94.826 189.894 L 96.223 190.436 Z M 96.329 183.997 C 105.156 185.133 85.821 177.987 94.387 183.355 L 96.329 183.997 Z M 127.009 202.861 C 135.256 197.938 132.536 214.403 140.998 204.254 C 149.341 198.16 133.791 211.787 144.071 205.34 C 151.512 200.363 162.497 207.7 169.436 210.087 C 174.424 209.845 179.277 214.403 184.396 211.629 C 194.244 208.974 165.133 207.694 172.763 202.991 C 163.753 205.615 157.097 199.866 152.663 194.092 C 142.553 191.757 130.868 186.592 125.82 177.64 C 123.76 174.286 128.79 178.118 124.042 172.625 C 117.954 167.21 114.914 161.056 110.826 154.472 C 105.941 151.869 105.366 144.199 104.875 154.218 C 104.915 147.894 98.977 143.637 97.525 145.403 C 97.499 139.314 103.882 142.368 99.415 137.863 C 98.455 131.552 95.289 124.975 94.34 117.847 C 92.864 114.414 94.13 107.058 89.293 114.832 C 87.533 123.052 88.711 104.736 91.451 110.772 C 95.047 104.612 90.155 105.337 89.959 106.188 C 92.301 100.99 91.444 93.613 89.345 96.425 C 90.594 90.912 91.32 76.141 87.482 78.763 C 89.809 72.996 91.896 52.383 81.785 60.245 C 77.692 60.303 70.598 61.73 67.25 63.397 C 77.758 69.191 66.19 65.489 61.907 64.567 C 61.351 69.929 57.114 67.614 51.817 67.666 C 60.279 68.712 47.697 76.316 42.853 73.362 C 36.549 76.37 48.287 83.89 42.977 86.217 C 43.632 89.716 33.325 84.95 34.13 93.045 C 28.015 90.467 33.293 102.644 36.353 98.525 C 46.757 101.343 43.677 107.758 43.938 113.858 C 42.244 117.408 35.568 105.508 42.453 106.058 C 37.019 97.235 36.445 102.866 31.932 106.966 C 30.886 107.261 43.441 112.798 35.562 115.532 C 42.493 116.605 42.696 122.673 44.109 126.512 C 48.274 130.852 47.416 121.717 52.407 126.937 C 49.247 122.287 35.692 113.837 46.607 116.547 C 46.547 111.871 44.631 108.097 47.979 108.188 C 51.295 102.192 44.507 122.98 51.975 115.356 C 54.04 114.454 54.558 109.353 58.272 115.84 C 63.666 121.15 60.221 124.993 52.609 120.129 C 53.969 124.752 62.79 126.399 61.129 133.626 C 62.887 139.982 65.347 137.64 67.491 137.274 C 69.171 143.447 70.128 138.909 70.206 135.966 C 77.902 137.616 76.097 142.166 78.509 145.344 C 83.812 147.736 70.918 129.12 80.021 139.746 C 89.599 148.397 83.617 152.006 75.019 150.621 C 80.459 150.181 82.21 157.978 89.019 157.703 C 95.224 160.658 99.429 171.997 88.731 167.275 C 85.023 163.927 71.885 159.801 82.617 166.164 C 92.517 170.754 100.39 173.494 109.943 179.256 C 116.777 184.134 119.731 189.723 122.321 190.83 C 116.574 193.575 105.007 188.639 113.598 187.129 C 108.236 186.154 102.208 183.441 107.34 190.117 C 111.708 193.766 122.805 193.379 124.8 193.791 C 123.113 197.506 120.217 197.801 124.865 198.088 C 119.679 200.854 126.533 201.286 127.01 202.861 L 127.009 202.861 Z M 116.403 172.906 C 113.245 169.604 112.428 163.425 115.841 168.798 C 117.594 169.505 121.446 178.903 116.403 172.906 Z M 96.172 139.589 C 92.412 131.167 98.84 134.985 97.009 140.969 L 96.172 139.589 Z M 61.548 116.499 C 59.868 113.734 57.088 105.625 57.984 103.148 C 58.788 107.182 66.557 120.502 61.789 108.667 C 56.526 98.747 68.087 111.883 69.277 114.362 C 69.833 116.821 66.027 113.689 68.603 119.462 C 63.902 112.89 65.83 123.092 61.548 116.499 Z M 44.082 101.827 C 40.099 97.863 37.215 94.215 44.271 99.367 C 46.985 99.472 38.23 91.07 44.926 96.699 C 51.961 97.982 48.397 108.242 44.082 101.827 Z M 46.469 95.759 C 34.889 85.445 61.018 101.146 48.359 97.667 L 46.469 95.759 Z M 79.654 115.035 C 74.639 112.033 78.32 93.882 80.034 106.293 C 84.906 104.716 79.764 112.708 83.394 112.629 C 82.826 117.669 81.198 119.483 79.654 115.035 Z M 48.737 92.371 C 41.297 82.104 70.362 102.754 53.505 94.974 C 51.745 94.51 49.621 94.346 48.737 92.371 Z M 49.882 88.454 C 54.303 87.506 68.204 96.216 55.44 90.939 C 54.022 89.369 50.994 90.082 49.882 88.453 L 49.882 88.454 Z M 87.853 107.378 C 88.326 98.538 90.497 102.101 87.873 108.647 L 87.853 107.377 L 87.853 107.378 Z M 53.171 85.375 C 54.975 82.732 48.383 73.428 54.118 82.039 C 56.598 84.007 61.291 85.335 57.146 86.165 C 63.665 91.914 55.558 87.722 53.171 85.375 Z M 81.993 80.64 C 79.692 76.591 84.898 62.788 85.48 71.348 C 83.053 78.018 84.78 81.746 86.466 72.8 C 89.593 65.764 85.793 86.696 81.993 80.64 Z M 91.522 179.308 C 98.106 181.002 98.074 178.287 92.122 177.476 C 88.925 174.502 78.822 171.343 87.866 177.11 C 88.462 178.628 90.352 178.588 91.522 179.308 Z M 68.152 163.783 C 71.774 166.492 81.811 171.447 73.317 164.818 C 76.181 161.488 67.837 159.717 70.604 157.488 C 63.561 153.177 65.044 153.563 69.983 153.701 C 61.521 149.914 71.205 150.202 70.748 148.261 C 67.485 147.619 54.537 142.505 62.155 148.679 C 54.413 144.735 60.31 150.15 57.97 149.581 C 50.05 147.423 65.02 155.611 56.714 153.577 C 61.253 157.173 68.936 162.797 58.63 157.382 C 57.277 159.337 66.007 162.3 68.151 163.783 L 68.152 163.783 Z M 150.406 212.022 C 153.878 208.662 150.55 217.384 156.16 211.199 C 156.218 206.771 155.99 204.157 149.713 209.537 C 147.979 210.499 147.209 214.572 150.406 212.023 L 150.406 212.022 Z M 93.542 175.515 C 97.408 178.949 111.283 178.033 98.232 175.941 C 96.302 173.083 85.964 173.77 93.542 175.515 Z M 29.917 132.776 C 24.307 124.772 26.432 121.175 21.018 114.636 C 19.99 109.634 11.733 98.295 16.748 110.307 C 21.338 117.337 22.698 128.217 29.918 132.776 L 29.917 132.776 Z M 165.563 214.291 C 171.435 210.506 164.21 211.087 164.498 214.637 L 165.563 214.291 Z M 174.986 216.849 C 182.512 211.42 170.429 215.808 173.41 217.882 L 174.986 216.849 Z M 48.737 136.385 C 54.249 137.62 70.779 149.966 61.03 137.242 C 56.035 135.764 59.03 123.555 53.936 125.713 C 57.356 131.428 56.746 133.853 49.566 130.258 C 40.55 125.85 44.499 132.436 46.266 134.254 C 43.858 134.803 49.443 136.34 48.736 136.384 L 48.737 136.385 Z M 23.607 116.54 C 24.594 112.452 14.511 94.071 18.847 107.326 C 20.409 110.105 20.247 115.368 23.607 116.54 L 23.607 116.54 Z M 196.166 211.793 C 201.626 210.688 214.07 214.573 216.077 210.349 C 209.447 210.185 193.145 205.666 192.373 211.42 L 193.825 211.65 L 196.167 211.793 L 196.166 211.793 Z M 26.12 93.07 C 31.626 90.912 16.094 88.597 24.995 92.665 L 26.12 93.07 Z M 8.927 73.84 C 7.933 68.138 8.07 58.126 17.585 61.507 C 4.885 64.031 26.38 77.297 23.666 66.822 C 29.008 67.085 34.116 63.665 31.31 68.849 C 41.838 67.692 49.13 58.564 59.297 59.846 C 67.215 58.794 75.873 58.002 84.407 54.811 C 91.423 54.307 98.177 46.754 94.334 42.275 C 84.767 41.465 74.748 42.661 64.175 44.767 C 52.458 47.199 41.813 51.828 29.989 53.817 C 18.46 55.367 32.304 58.08 29.001 58.688 C 22.991 60.774 36.175 62.18 28.223 64.383 C 23.313 63.449 18.199 61.762 20.298 56.583 C 9.26 58.021 -0.444 62.598 8.28 73.832 L 8.928 73.838 L 8.927 73.84 Z M 35.535 60.29 C 38.118 50.757 49.397 68.138 39.772 61.559 C 38.627 60.695 36.73 59.995 35.535 60.29 Z M 40.778 55.746 C 41.12 51.358 51.641 58.067 42.512 57.322 L 40.778 55.745 L 40.778 55.746 Z M 48.927 52.026 C 52.876 47.285 71.27 48.997 57.806 51.56 C 54.196 48.84 51.431 53.162 48.927 52.026 Z M 79.752 48.284 C 82.242 41.759 89.422 45.663 80.909 46.97 C 81.091 47.67 80.654 50.345 79.752 48.284 Z M 239.958 211.879 C 245.903 211.899 257.972 210.027 245.038 210.034 C 243.005 210.349 233.21 210.284 239.958 211.879 Z M 35.11 81.75 C 39.923 81.423 42.636 76.446 34.174 76.728 C 21.064 75.375 45.741 81.221 32.494 79.547 C 30.716 80.724 35.004 82.077 35.11 81.75 Z M 28.367 43.74 C 36.96 40.824 48.704 37.541 52.759 45.18 C 48.632 40.217 51.092 35.325 54.989 42.59 C 60.501 49.934 63.259 39.249 59.676 36.783 C 63.764 41.857 68.406 44.258 62.409 37.105 C 68.929 29.264 49.364 38.131 44.918 38.039 C 42.78 38.999 22.829 43.126 28.368 43.74 L 28.367 43.74 Z M 33.402 34.103 C 38.301 30.409 50.345 36.306 42.616 30.427 C 41.858 29.761 25.694 34.887 33.402 34.103 Z M 51.261 34.841 C 56.989 34.985 48.79 27.138 55.616 30.695 C 54.498 27.034 47.665 26.347 44.324 24.883 C 42.434 28.231 48.167 34.887 51.261 34.841 L 51.261 34.841 Z M 43.834 20.375 C 53.072 19.153 41.478 16.4 41.968 20.278 L 43.833 20.375 L 43.834 20.375 Z M 30.204 9.717 C 23.697 1.223 42.439 11.143 35.827 2.249 C 30.263 -2.177 24.921 7.239 30.204 9.717 L 30.204 9.717 Z M 113.674 54.674 C 116.658 49.389 101.362 47.546 111.667 52.802 C 112.615 53.117 112.401 55.039 113.674 54.674 Z" />
</svg>