<svg xmlns="http://www.w3.org/2000/svg"  viewBox="0 0 80 150">
    <path d="M 42.884 147.223 L 39.101 145.93 C 39.101 145.93 39.563 126.644 32.641 125.26 C 28.028 119.907 33.381 -101.753 49.991 124.521 C 49.991 124.521 44.269 127.381 43.254 132.273 C 42.146 137.072 42.884 147.223 42.884 147.223 Z" fill="#6c757d" />
    <path d="M 44.915 128.582 C 44.915 128.582 78.045 106.803 70.292 61.492 C 62.818 28.549 45.192 17.752 43.254 13.599 C 41.132 10.646 39.101 5.479 39.101 5.479 L 40.486 97.113 C 40.486 97.206 37.625 125.167 44.916 128.583" fill="#6c757d" />
    <path d="M 37.164 129.781 C 37.164 129.781 6.064 108.556 7.91 71.183 C 9.663 33.809 31.626 15.445 35.871 12.123 C 38.64 9.17 38.732 8.062 38.917 5.109 C 40.855 9.262 40.486 67.215 40.762 74.043 C 41.592 100.343 39.286 124.799 37.164 129.781 Z" fill="#6c757d" />
</svg>