<svg xmlns="http://www.w3.org/2000/svg" viewBox="0 0 200 200">
    <rect x="3.324" y="2.902" width="192.828" height="192.828" rx="20" ry="20" style="fill: rgb(108, 117, 125);"></rect>
    <path fill="#FFF" d="M 40.047 97.982 L 40.047 106.363 L 66.783 106.363 L 66.783 182.467 L 85.758 182.467 L 85.758 106.363 L 112.498 106.363 L 112.498 98.137 C 112.498 93.51 112.498 89.756 112.292 89.651 C 112.292 89.497 95.99 89.446 76.193 89.446 L 40.201 89.6 L 40.201 98.034 L 40.047 97.982 Z M 160.217 89.395 C 165.46 90.629 169.47 92.995 173.07 96.747 C 174.974 98.803 177.804 102.406 178.008 103.329 C 178.008 103.637 169.112 109.656 163.712 112.995 C 163.507 113.152 162.685 112.276 161.861 110.939 C 159.188 107.135 156.463 105.488 152.194 105.181 C 146.023 104.769 141.91 108.008 141.91 113.408 C 141.91 115.052 142.221 115.978 142.834 117.316 C 144.225 120.146 146.797 121.841 154.765 125.339 C 169.47 131.661 175.848 135.828 179.703 141.794 C 184.074 148.478 185.052 158.967 182.121 166.834 C 178.829 175.422 170.809 181.232 159.344 183.135 C 155.74 183.751 147.514 183.647 143.657 182.98 C 135.431 181.438 127.564 177.323 122.731 172.029 C 120.826 169.97 117.177 164.471 117.382 164.11 L 119.336 162.873 L 127.049 158.401 L 132.86 155.007 L 134.197 156.806 C 135.893 159.48 139.7 163.08 141.91 164.313 C 148.596 167.759 157.542 167.297 161.963 163.288 C 163.866 161.536 164.689 159.687 164.689 157.117 C 164.689 154.751 164.329 153.671 163.147 151.871 C 161.501 149.61 158.208 147.757 148.955 143.644 C 138.31 139.121 133.787 136.239 129.567 131.818 C 127.151 129.142 124.942 124.978 123.912 121.534 C 123.141 118.551 122.885 111.25 123.605 108.319 C 125.814 98.034 133.579 90.834 144.686 88.776 C 148.287 88.058 156.77 88.365 160.318 89.291 L 160.217 89.395 Z" style=""></path>
</svg>